<svg xmlns="http://www.w3.org/2000/svg" width="2000" height="2000" viewBox="0 0 2000 2000"><path d="M934.17,0h121.77c255.21,16.25,503.33,130.52,676.46,319.58C1891.56,488.33,1983.54,714,2000,944.38v110.93c-16.77,235.42-112.6,465.84-278,635.52-172.4,183.13-416.25,292-666.36,309.17H934.79c-87.5-10.42-175.1-24.58-258.44-54-256.14-86.35-472.6-281.87-585-527.71C36.67,1301.88,7.92,1174.37,0,1046.25V944C15.62,696,123.54,454.79,303.23,282.5,471.35,116.77,699.69,18.85,934.17,0" fill="#0169da"/><g fill="#fff"><path d="m941.56 381.56c64.59-9.37 132.61-3 191.25 26.88 105.73 49 177.61 162.39 176.56 278.85 2.4 42.92-9.68 84.38-18.85 125.73 36.25-10.83 71.88-23.65 107.29-37 14.48 26.56 25.31 54.9 29.17 85.11-92.5 28.64-181.88 66-274.06 95.62-25.52-93.23-55.11-185.31-78.44-279.06 27.6-11.69 56.52-20.19 86.77-20.69 11.88 38.85 18.13 79.58 33.23 117.29 3.12 1.67 9.48 5 12.6 6.56 16.46-54.27 21.46-113.54.42-167.5-30.62-89.79-124-151.25-218-148.75-62.19 3.86-124.06 31.15-164 79.9-72.27 80.5-70.6 214.88 2.31 294.5 25.94 30.1 62.61 47.81 91.25 74.89 10.32 35.42 3 73.65 4.07 110.21-73.86-52.39-158-100-203-181.87-55.73-97.82-50.2-225.52 10.84-319.48 47.57-72.54 124.76-126.19 210.59-141.19"/><path d="m962.19 617.29c29.58-.73 59.06-.62 88.64 0 6.25 106.56 1.46 213.44 2.92 320.21-6.25 164.06-1.56 328.33-3.33 492.5-29.59 1.77-59.27 2-88.75-1.35.33-270.42-.21-540.94.52-811.36"/><path d="m1091.67 1039.37c89.37 55.11 181.87 125.42 207.6 233.23 52.19 172.61-77.5 371.57-257.19 391.15-162.29 33.54-331.14-91.56-356-253.44-17.08-68.64 11.46-135 37.5-197-37.92 6.57-75.73 14-113 23.65-11.87-28.44-14.89-59.06-16.35-89.58 95.62-14.17 188.54-45.11 285-53.34 11.77 95.73 29.06 190.84 36 287a851.43 851.43 0 0 1 -85.94 11.88c-8.12-44.8-11.56-90.21-19.27-135-75.94 87.7-29 228.75 63.12 285.41 86.36 59.07 212.71 44.38 283.65-32.29 71.56-69.17 84.58-188 31.56-271.87-22.6-40.21-62.6-65-97.39-93.44-.96-35.42-1.79-70.94.71-106.36"/></g></svg>